# xmcd
#
# Track frame offsets: 
#        182
#        12672
#        36360
#        48210
#        62942
#        77267
#        91932
#        101425
#        113870
#        126445
#        137700
#        153562
#        166460
#        182610
#        202357
#        236777
#        249295
#        271812
#        285840
#        304605
#
# Disc length: 4226 seconds
#
# Revision: 18
# Processed by: cddbd v1.5.2PL0 Copyright (c) Steve Scherf et al.
# Submitted via: ExactAudioCopyFreeDBPlugin 1.0
#
DISCID=13108014
DTITLE=James Brown - James Brown:  20 All Time Greatest Hits!
DYEAR=1991
DGENRE=Rhythm and Blues
TTITLE0=I Got You (I Feel Good)
TTITLE1=Get Up (I Feel Like Being A) Sex Machine, Part 1
TTITLE2=I Got the Feelin'
TTITLE3=Mother Popcorn, Part 1
TTITLE4=Give it Up or Turnit a Loose
TTITLE5=Make it Funky, Part 1
TTITLE6=Papa’s Got a Brand New Bag, Part 1
TTITLE7=Think
TTITLE8=It's a Man's Man's Man's World
TTITLE9=Try Me
TTITLE10=Night Train
TTITLE11=Cold Sweat, Part 1
TTITLE12=Get on the Good Foot
TTITLE13=Papa Don't Take No Mess, Part 1
TTITLE14=The Payback
TTITLE15=Say it Loud (I'm Black and I'm Proud), Part 1
TTITLE16=Super Bad, Parts 1 and 2
TTITLE17=Hot Pants, Part 1
TTITLE18=Get Up Offa That Thing
TTITLE19=Please, Please, Please
EXTD=
EXTT0=
EXTT1=
EXTT2=
EXTT3=
EXTT4=
EXTT5=
EXTT6=
EXTT7=
EXTT8=
EXTT9=
EXTT10=
EXTT11=
EXTT12=
EXTT13=
EXTT14=
EXTT15=
EXTT16=
EXTT17=
EXTT18=
EXTT19=
PLAYORDER=
